HIERARCHY
ROOT hip
{
  OFFSET 0 0 0
  CHANNELS 6 Xposition Yposition Zposition Zrotation Yrotation Xrotation
  JOINT abdomen
  {
    OFFSET 0 20.6881 -0.73152
    CHANNELS 3 Zrotation Xrotation Yrotation
    JOINT chest
    {
      OFFSET 0 11.7043 -0.48768
      CHANNELS 3 Zrotation Xrotation Yrotation
      JOINT neck
      {
        OFFSET 0 22.1894 -2.19456
        CHANNELS 3 Zrotation Xrotation Yrotation
        JOINT head
        {
          OFFSET -0.24384 7.07133 1.2192
          CHANNELS 3 Zrotation Xrotation Yrotation
          JOINT leftEye
          {
            OFFSET 4.14528 8.04674 8.04672
            CHANNELS 3 Zrotation Xrotation Yrotation
            End Site
            {
              OFFSET 1 0 0
            }
          }
          JOINT rightEye
          {
            OFFSET -3.6576 8.04674 8.04672
            CHANNELS 3 Zrotation Xrotation Yrotation
            End Site
            {
              OFFSET 1 0 0
            }
          }
        }
      }
      JOINT rCollar
      {
        OFFSET -2.68224 19.2634 -4.8768
        CHANNELS 3 Zrotation Xrotation Yrotation
        JOINT rShldr
        {
          OFFSET -8.77824 -1.95073 1.46304
          CHANNELS 3 Zrotation Xrotation Yrotation
          JOINT rForeArm
          {
            OFFSET -28.1742 -1.7115 0.48768
            CHANNELS 3 Zrotation Xrotation Yrotation
            JOINT rHand
            {
              OFFSET -22.5879 0.773209 7.07136
              CHANNELS 3 Zrotation Xrotation Yrotation
              JOINT rThumb1
              {
                OFFSET -1.2192 -0.487915 3.41376
                CHANNELS 3 Zrotation Xrotation Yrotation
                JOINT rThumb2
                {
                  OFFSET -3.37035 -0.52449 3.41376
                  CHANNELS 3 Zrotation Xrotation Yrotation
                  End Site
                  {
                    OFFSET -1.78271 -1.18214 1.43049
                  }
                }
              }
              JOINT rIndex1
              {
                OFFSET -7.75947 0.938293 5.60832
                CHANNELS 3 Zrotation Xrotation Yrotation
                JOINT rIndex2
                {
                  OFFSET -2.54057 -0.884171 1.56538
                  CHANNELS 3 Zrotation Xrotation Yrotation
                  End Site
                  {
                    OFFSET -1.62519 -0.234802 1.16502
                  }
                }
              }
              JOINT rMid1
              {
                OFFSET -8.24714 1.18213 3.41376
                CHANNELS 3 Zrotation Xrotation Yrotation
                JOINT rMid2
                {
                  OFFSET -3.10165 -0.590103 1.0647
                  CHANNELS 3 Zrotation Xrotation Yrotation
                  End Site
                  {
                    OFFSET -2.48547 -0.328903 0.83742
                  }
                }
              }
              JOINT rRing1
              {
                OFFSET -8.82822 0.546677 1.51678
                CHANNELS 3 Zrotation Xrotation Yrotation
                JOINT rRing2
                {
                  OFFSET -2.60934 -0.819778 -0.0198488
                  CHANNELS 3 Zrotation Xrotation Yrotation
                  End Site
                  {
                    OFFSET -2.33842 -0.294052 0.168128
                  }
                }
              }
              JOINT rPinky1
              {
                OFFSET -8.27202 -0.0477905 -0.4584
                CHANNELS 3 Zrotation Xrotation Yrotation
                JOINT rPinky2
                {
                  OFFSET -1.82734 -0.647385 -0.700984
                  CHANNELS 3 Zrotation Xrotation Yrotation
                  End Site
                  {
                    OFFSET -1.69225 -0.51767 -0.607171
                  }
                }
              }
            }
          }
        }
      }
      JOINT lCollar
      {
        OFFSET 2.68224 19.2634 -4.8768
        CHANNELS 3 Zrotation Xrotation Yrotation
        JOINT lShldr
        {
          OFFSET 8.77824 -1.95073 1.46304
          CHANNELS 3 Zrotation Xrotation Yrotation
          JOINT lForeArm
          {
            OFFSET 28.1742 -1.7115 0.48768
            CHANNELS 3 Zrotation Xrotation Yrotation
            JOINT lHand
            {
              OFFSET 22.5879 0.773209 7.07136
              CHANNELS 3 Zrotation Xrotation Yrotation
              JOINT lThumb1
              {
                OFFSET 1.2192 -0.487915 3.41376
                CHANNELS 3 Zrotation Xrotation Yrotation
                JOINT lThumb2
                {
                  OFFSET 3.37035 -0.52449 3.41376
                  CHANNELS 3 Zrotation Xrotation Yrotation
                  End Site
                  {
                    OFFSET 1.78271 -1.18214 1.43049
                  }
                }
              }
              JOINT lIndex1
              {
                OFFSET 7.75947 0.938293 5.60832
                CHANNELS 3 Zrotation Xrotation Yrotation
                JOINT lIndex2
                {
                  OFFSET 2.54057 -0.884171 1.56538
                  CHANNELS 3 Zrotation Xrotation Yrotation
                  End Site
                  {
                    OFFSET 1.62519 -0.234802 1.16502
                  }
                }
              }
              JOINT lMid1
              {
                OFFSET 8.24714 1.18213 3.41376
                CHANNELS 3 Zrotation Xrotation Yrotation
                JOINT lMid2
                {
                  OFFSET 3.10165 -0.590103 1.0647
                  CHANNELS 3 Zrotation Xrotation Yrotation
                  End Site
                  {
                    OFFSET 2.48547 -0.328903 0.83742
                  }
                }
              }
              JOINT lRing1
              {
                OFFSET 8.82822 0.546677 1.51678
                CHANNELS 3 Zrotation Xrotation Yrotation
                JOINT lRing2
                {
                  OFFSET 2.60934 -0.819778 -0.0198488
                  CHANNELS 3 Zrotation Xrotation Yrotation
                  End Site
                  {
                    OFFSET 2.33842 -0.294052 0.168128
                  }
                }
              }
              JOINT lPinky1
              {
                OFFSET 8.27202 -0.0477905 -0.4584
                CHANNELS 3 Zrotation Xrotation Yrotation
                JOINT lPinky2
                {
                  OFFSET 1.82734 -0.647385 -0.700984
                  CHANNELS 3 Zrotation Xrotation Yrotation
                  End Site
                  {
                    OFFSET 1.69225 -0.51767 -0.607171
                  }
                }
              }
            }
          }
        }
      }
    }
  }
  JOINT rButtock
  {
    OFFSET -8.77824 4.35084 1.2192
    CHANNELS 3 Zrotation Xrotation Yrotation
    JOINT rThigh
    {
      OFFSET 0 -1.70687 -2.19456
      CHANNELS 3 Zrotation Xrotation Yrotation
      JOINT rShin
      {
        OFFSET 0 -36.8199 0.73152
        CHANNELS 3 Zrotation Xrotation Yrotation
        JOINT rFoot
        {
          OFFSET 0.73152 -45.1104 -5.12064
          CHANNELS 3 Zrotation Xrotation Yrotation
          End Site
          {
            OFFSET -1.1221 -3.69964 12.103
          }
        }
      }
    }
  }
  JOINT lButtock
  {
    OFFSET 8.77824 4.35084 1.2192
    CHANNELS 3 Zrotation Xrotation Yrotation
    JOINT lThigh
    {
      OFFSET 0 -1.70687 -2.19456
      CHANNELS 3 Zrotation Xrotation Yrotation
      JOINT lShin
      {
        OFFSET 0 -36.8199 0.73152
        CHANNELS 3 Zrotation Xrotation Yrotation
        JOINT lFoot
        {
          OFFSET -0.73152 -45.1104 -5.12064
          CHANNELS 3 Zrotation Xrotation Yrotation
          End Site
          {
            OFFSET 1.1221 -3.69964 12.103
          }
        }
      }
    }
  }
}
MOTION
Frames:	5
Frame Time:	0.03333
-19.3919 69.1134 1.4706000000000001 -7.055299 12.378945 8.48822 10.030198 -7.429268 -179.121637 -4.108612 -5.706099 176.082157 1.407994 26.596787 130.3871 -22.573234 30.934136 -145.576186 -2.388391 -1.148667 51.364304 1.744744 0.175826 11.508174 -140.716468 48.080414 135.624142 122.655716 10.379198 -164.635295 -65.119047 -29.03022 135.42917 -167.208225 -65.895506 -171.40209 -156.439347 -20.24343 87.558891 -138.125083 -38.6892 9.926582 -119.530776 -1.238675 137.112349 129.474107 -18.063624 84.970736 -38.595843 -44.03849 -73.430041 -23.212737 35.799383 85.221889 -120.658244 29.639615 149.871737 -109.247065 13.902255 151.261668 -130.568143 -0.950234 -129.99028 -37.28944 -4.926835 80.945585 123.327587 55.831857 -128.218917 63.130838 -32.629262 -26.369876 -4.208168 68.477975 107.3966 -151.277549 -37.274224 -138.199071 4.048752 -21.424002 3.800957 23.916102 46.978343 -57.844122 -3.712465 -64.045501 8.436275 -102.569517 -52.111938 -40.065669 -4.750016 42.287899 -1.122521 161.214997 8.88919 -176.281049 151.323107 8.711366 -172.157507 -68.595632 -64.110158 -64.231557 148.182324 34.41696 148.802268 145.846543 34.378001 159.666226 82.181816 1.943459 28.453069 -85.29856 -17.843421 90.402281 83.961437 -14.980502 154.44536 73.213458 52.653732 25.114183 118.131859 27.959765 35.34791 -121.923613 -12.319805 -50.503989 -109.233286 38.330848 -74.711655 -71.707195 -2.473572 174.094873
-18.9971 69.356 1.6475 -6.636923 11.77464 8.686958 6.341559 -7.956229 177.816941 -8.609419 -6.228572 174.43904 -20.373855 24.317743 -93.710003 35.675946 16.503195 81.069233 -3.015989 -1.134355 41.216454 -0.230972 -0.032501 16.019369 -76.897131 61.354668 70.47295 111.718343 -15.068102 151.359496 -178.938813 -44.742658 36.267533 -158.18732 5.526346 165.74492 -174.311963 -32.424573 76.765817 68.825785 -27.746811 121.447123 10.271944 -69.664236 -62.215157 -28.995813 -58.49894 -67.7141 -87.414675 -46.276266 -120.138091 0.364867 61.679144 89.511819 -133.390054 0.760335 163.787014 76.086175 -31.954476 60.187336 -4.48709 -31.56378 -25.1068 -94.723572 19.94973 -24.156409 153.136016 -36.857216 -172.001482 -118.136464 15.353648 99.328487 -171.571126 -22.671195 -62.614688 -161.004185 -24.968175 -145.389077 -174.478712 -3.628922 -95.525824 99.123341 46.636804 2.840616 147.319065 38.075702 -99.447569 0.956433 2.544895 7.60219 -10.230756 -8.410679 9.523 -165.348924 37.837778 -178.659193 144.402811 31.345327 -160.737013 152.017737 -20.95339 -154.174446 113.037107 65.763362 -138.238934 13.99233 51.090095 -87.121312 153.258352 59.045638 51.914748 -176.305244 21.991967 -179.597892 42.669781 -67.455351 -124.907186 164.67564 -35.359086 52.119733 -85.749151 62.843905 -17.82136 144.863175 -10.677686 -80.184996 -100.384249 -63.092663 -3.736511 30.134554 -38.527862 128.611127
-18.5477 69.7993 1.9044999999999999 -4.732698 11.881783 8.044419 0.669613 -0.071122 26.956293 11.412809 -8.175695 -39.862087 -22.561983 27.548321 -109.729481 34.003267 30.860999 102.472204 -6.591871 -1.707497 29.015736 -2.211439 -0.263458 13.5861 17.98541 -66.018803 14.40565 81.599575 13.262865 1.263291 -62.445951 -20.490498 130.192031 -178.269455 -77.300912 -177.014467 178.680778 -30.133012 70.913264 -155.275269 -3.175019 -18.433218 -116.050385 36.358071 132.681362 -0.33368 -16.290431 24.426072 -44.687488 -47.365012 -87.6859 -143.356212 -38.351989 69.64177 8.543227 10.752241 15.545236 54.828959 22.292919 -61.419283 32.564934 34.82763 14.414392 49.140638 -32.414349 -62.956204 73.203135 -75.723752 100.769853 -106.328036 20.059058 43.968472 149.656477 -33.357686 -80.763379 -145.001284 -48.941361 -131.14679 7.163861 -19.999993 5.645706 53.773622 44.816989 -112.813649 163.672137 36.937579 -99.52118 -14.583174 -31.087528 -15.226224 144.132195 56.870746 -133.795698 152.448849 -24.846824 -102.820471 147.211207 15.623511 -169.097476 91.962385 44.87563 -119.586793 112.209054 -79.592163 108.411325 -160.079173 -21.314908 118.520024 94.130653 16.75965 32.112638 -107.379067 -6.861106 84.158269 75.824349 -25.067996 -7.937094 171.039724 41.29891 109.768225 -39.591023 60.038921 -44.432473 125.891358 -16.442678 -93.864095 123.967555 -85.30531 -172.449135 -64.794399 51.684548 150.839092
-18.445700000000002 69.7136 2.5758 -5.267721 7.905399 7.40044 3.550992 -1.726191 -119.964845 -6.69948 9.652357 103.753039 -9.167218 27.120627 157.328894 -27.05216 32.4959 -140.210344 -3.041346 -0.565439 21.059391 -6.842117 -1.032358 17.140823 27.790504 -66.316227 23.770376 82.200496 15.664385 -7.62961 155.285725 -27.972867 18.503948 -144.835878 34.77306 147.370869 28.977288 2.410863 12.208091 -22.531569 10.223513 -107.458711 0.08447 -51.549802 -61.176222 -4.382918 -71.159221 -75.588349 -0.594364 -4.266696 -50.586644 94.695774 2.575984 100.062318 -130.128664 -0.181129 178.364895 -130.529285 3.345322 119.778322 -105.015362 27.595632 -149.477348 -49.333293 4.508305 110.122979 -2.262713 -25.59703 24.345447 -84.73981 28.546377 -29.803085 -170.86964 -14.664111 -57.036923 -173.299123 -15.539012 -147.480525 8.097601 -12.79567 10.14337 -70.105024 12.789643 24.52363 165.093374 26.266166 -110.70233 -151.75588 -12.691304 -112.471071 4.092817 26.513335 7.148697 0.896706 -49.203709 82.26248 -5.647353 -23.626798 -6.519955 -115.419233 62.166653 126.613017 12.21725 38.415342 -57.526369 66.713183 23.052115 153.531371 -37.360115 30.472353 -38.984247 75.267715 -22.265745 132.127729 83.235927 -0.311244 101.647426 -158.538903 15.595212 -133.129322 -32.34727 47.086877 -41.525743 115.126135 -25.586017 -127.940542 83.758755 -50.053845 174.365615 -12.17476 49.024939 104.079302
-18.3749 69.793 3.4116 -5.548645 5.229794 7.031965 -1.698389 -0.54039 99.044788 -1.413156 -15.826138 -114.05845 -22.916735 13.129055 -55.840515 36.383183 7.31057 65.030376 0.968136 0.050807 6.008016 -9.310378 -1.561191 18.997933 -23.505226 25.55289 22.149836 88.276846 -11.033091 80.033665 162.689457 -20.19528 26.040803 -144.401894 32.705779 146.510684 -154.760902 -24.761642 67.181404 130.872585 41.963772 37.706906 8.957973 -32.728705 -49.444066 -145.943573 -68.856796 122.300103 -144.958365 -17.100754 -173.105124 -78.306453 -73.392545 -174.90078 20.989532 -2.73569 0.451143 144.66262 19.45072 -128.093438 30.239088 -38.735625 -34.475579 -170.620066 -26.392674 -71.961911 -4.39431 -21.364667 21.261757 86.196299 -18.349145 -144.051161 118.901693 -3.133321 77.259747 0.65481 -36.593112 0.325841 167.19161 17.130126 -96.151717 -153.228606 -62.273753 167.957069 174.97649 -24.455498 -132.417266 172.882291 26.163618 -164.638563 152.594142 -28.58226 -159.059357 -24.203011 -1.80654 -73.270739 -12.483093 -22.94722 -6.410432 -121.332438 62.249676 126.944267 -22.618271 -24.931992 -36.039917 -48.661453 3.693423 78.924878 136.138883 59.707849 35.029211 -155.588834 31.800753 82.335864 74.248075 -0.944389 171.923342 -170.428996 -61.354289 -78.515908 78.996027 12.100849 22.635674 -88.378454 -40.007547 4.515134 58.093987 81.190734 160.787207 -168.303954 25.105761 -169.451303
